<mxfile host="Electron" modified="2023-11-24T09:29:27.332Z" agent="Mozilla/5.0 (Windows NT 10.0; Win64; x64) AppleWebKit/537.36 (KHTML, like Gecko) draw.io/22.1.2 Chrome/114.0.5735.289 Electron/25.9.4 Safari/537.36" etag="tAYmtWUt01fOMQzicmgd" version="22.1.2" type="device">
  <diagram name="페이지-1" id="0HDk0YaEQumIUxBcUYRE">
    <mxGraphModel dx="1418" dy="828" grid="1" gridSize="10" guides="1" tooltips="1" connect="1" arrows="1" fold="1" page="1" pageScale="1" pageWidth="827" pageHeight="1169" math="0" shadow="0">
      <root>
        <mxCell id="0" />
        <mxCell id="1" parent="0" />
        <mxCell id="w_tUm5XtcYakBkpVaV---1" value="" style="group" vertex="1" connectable="0" parent="1">
          <mxGeometry x="40" y="380" width="760" height="80" as="geometry" />
        </mxCell>
        <mxCell id="q3BLJ5biTwibOrS5OOHF-5" value="" style="rounded=0;whiteSpace=wrap;html=1;rotation=-90;strokeColor=none;fillColor=#000000;" parent="w_tUm5XtcYakBkpVaV---1" vertex="1">
          <mxGeometry x="340" y="-300" width="80" height="680" as="geometry" />
        </mxCell>
        <mxCell id="q3BLJ5biTwibOrS5OOHF-13" value="" style="ellipse;whiteSpace=wrap;html=1;aspect=fixed;strokeColor=none;fillColor=#0000000;" parent="w_tUm5XtcYakBkpVaV---1" vertex="1">
          <mxGeometry x="680" width="80" height="80" as="geometry" />
        </mxCell>
        <mxCell id="q3BLJ5biTwibOrS5OOHF-15" value="" style="ellipse;whiteSpace=wrap;html=1;aspect=fixed;strokeColor=none;fillColor=#0000000;" parent="w_tUm5XtcYakBkpVaV---1" vertex="1">
          <mxGeometry width="80" height="80" as="geometry" />
        </mxCell>
        <mxCell id="w_tUm5XtcYakBkpVaV---2" value="" style="group" vertex="1" connectable="0" parent="1">
          <mxGeometry x="380" y="40" width="80" height="760" as="geometry" />
        </mxCell>
        <mxCell id="q3BLJ5biTwibOrS5OOHF-4" value="" style="rounded=0;whiteSpace=wrap;html=1;strokeColor=none;fillColor=#000000;" parent="w_tUm5XtcYakBkpVaV---2" vertex="1">
          <mxGeometry y="40" width="80" height="680" as="geometry" />
        </mxCell>
        <mxCell id="q3BLJ5biTwibOrS5OOHF-12" value="" style="ellipse;whiteSpace=wrap;html=1;aspect=fixed;strokeColor=none;fillColor=#0000000;" parent="w_tUm5XtcYakBkpVaV---2" vertex="1">
          <mxGeometry width="80" height="80" as="geometry" />
        </mxCell>
        <mxCell id="q3BLJ5biTwibOrS5OOHF-14" value="" style="ellipse;whiteSpace=wrap;html=1;aspect=fixed;strokeColor=none;fillColor=#0000000;" parent="w_tUm5XtcYakBkpVaV---2" vertex="1">
          <mxGeometry y="680" width="80" height="80" as="geometry" />
        </mxCell>
      </root>
    </mxGraphModel>
  </diagram>
</mxfile>
